HIERARCHY
ROOT Hips
{
 OFFSET 0.000000 0.000000 0.000000
 CHANNELS 6 Xposition Yposition Zposition Yrotation Xrotation Zrotation
 JOINT Chest
 {
  OFFSET 0.000000 9.585900 0.002600
  CHANNELS 3 Yrotation Xrotation Zrotation
  JOINT Chest2
  {
   OFFSET 0.000000 9.601200 -0.005300
   CHANNELS 3 Yrotation Xrotation Zrotation
   JOINT Chest3
   {
    OFFSET 0.000000 9.561800 0.000000
    CHANNELS 3 Yrotation Xrotation Zrotation
    JOINT Chest4
    {
     OFFSET 0.000000 9.552100 0.000000
     CHANNELS 3 Yrotation Xrotation Zrotation
     JOINT Neck
     {
      OFFSET 0.000000 14.453000 0.000000
      CHANNELS 3 Yrotation Xrotation Zrotation
      JOINT Head
      {
       OFFSET 0.000000 8.936500 -0.011300
       CHANNELS 3 Yrotation Xrotation Zrotation
       End Site
       {
        OFFSET 0.000000 17.073600 -0.006000
       }
      }
     }
     JOINT RightCollar
     {
      OFFSET -2.921100 9.558500 0.000000
      CHANNELS 3 Yrotation Xrotation Zrotation
      JOINT RightShoulder
      {
       OFFSET -13.519700 0.000000 0.000000
       CHANNELS 3 Yrotation Xrotation Zrotation
       JOINT RightElbow
       {
        OFFSET 0.000000 -29.696600 0.000000
        CHANNELS 3 Yrotation Xrotation Zrotation
        JOINT RightWrist
        {
         OFFSET 0.000000 -24.004700 0.000000
         CHANNELS 3 Yrotation Xrotation Zrotation
         End Site
         {
          OFFSET 0.000000 -17.728500 0.000000
         }
        }
       }
      }
     }
     JOINT LeftCollar
     {
      OFFSET 2.921100 9.558500 0.000000
      CHANNELS 3 Yrotation Xrotation Zrotation
      JOINT LeftShoulder
      {
       OFFSET 13.519700 0.000000 0.000000
       CHANNELS 3 Yrotation Xrotation Zrotation
       JOINT LeftElbow
       {
        OFFSET 0.000000 -29.696600 0.000000
        CHANNELS 3 Yrotation Xrotation Zrotation
        JOINT LeftWrist
        {
         OFFSET 0.000000 -24.004700 0.000000
         CHANNELS 3 Yrotation Xrotation Zrotation
         End Site
         {
          OFFSET 0.000000 -17.728500 0.000000
         }
        }
       }
      }
     }
    }
   }
  }
 }
 JOINT RightHip
 {
  OFFSET -7.771700 -0.012900 -0.001300
  CHANNELS 3 Yrotation Xrotation Zrotation
  JOINT RightKnee
  {
   OFFSET 0.000000 -40.869800 0.001200
   CHANNELS 3 Yrotation Xrotation Zrotation
   JOINT RightAnkle
   {
    OFFSET 0.000000 -39.717900 0.002100
    CHANNELS 3 Yrotation Xrotation Zrotation
    JOINT RightToe
    {
     OFFSET 0.000000 -4.965400 11.033500
     CHANNELS 3 Yrotation Xrotation Zrotation
     End Site
     {
      OFFSET 0.000000 -1.423100 5.872300
     }
    }
   }
  }
 }
 JOINT LeftHip
 {
  OFFSET 7.771700 -0.012900 -0.001300
  CHANNELS 3 Yrotation Xrotation Zrotation
  JOINT LeftKnee
  {
   OFFSET 0.000000 -40.869800 0.001200
   CHANNELS 3 Yrotation Xrotation Zrotation
   JOINT LeftAnkle
   {
    OFFSET 0.000000 -39.717900 0.002100
    CHANNELS 3 Yrotation Xrotation Zrotation
    JOINT LeftToe
    {
     OFFSET 0.000000 -4.965400 11.033500
     CHANNELS 3 Yrotation Xrotation Zrotation
     End Site
     {
      OFFSET 0.000000 -1.423100 5.872300
     }
    }
   }
  }
 }
}
MOTION
Frames: 11
Frame Time: 0.008333
-45.677223 57.873592 11.814222 179.017680 -51.165793 -3.554808 3.289789 22.779480 3.106577 1.693323 13.041764 1.615765 2.172535 16.295157 2.088092 1.696053 13.041372 1.612922 1.531019 16.163994 5.824011 0.779436 -5.694469 10.278676 2.049164 3.922799 1.064709 -0.570092 -16.216541 -12.708540 -70.302859 -65.501788 117.524484 10.069655 17.841867 -27.920681 -10.237218 0.635938 -1.111406 4.017931 -11.770111 14.770901 36.191179 -30.221153 -102.094120 9.509615 8.563116 6.308699 4.256653 -20.151734 -3.318623 -34.473692 73.581858 -38.792891 5.480277 -14.077357 11.973077 0.006862 -0.020091 0.065008 -7.509772 -17.947576 5.125898 86.447222 82.114584 85.416810 0.716101 -21.802141 -17.917920 0.014056 0.024143 0.005696
-45.679737 57.873066 11.811519 179.025205 -51.164630 -3.548966 3.284339 22.779202 3.098911 1.694090 13.041449 1.615190 2.190010 16.293263 2.092506 1.688395 13.041175 1.612519 1.525313 16.161966 5.810927 0.777816 -5.699522 10.255072 2.048224 3.924185 1.062810 -0.584817 -16.216778 -12.697956 -70.411352 -65.540268 117.621263 10.085331 17.866775 -27.917736 -10.243547 0.635696 -1.107404 4.023947 -11.767449 14.762051 36.206682 -30.250865 -102.105261 9.523658 8.567312 6.295863 4.261550 -20.151882 -3.328481 -34.463718 73.597933 -38.788034 5.465150 -14.094917 11.968467 0.004750 -0.020342 0.061959 -7.508617 -17.949816 5.113611 86.450537 82.115408 85.419193 0.720297 -21.805119 -17.920281 0.012434 0.026388 0.008332
-45.681148 57.872515 11.809116 179.033857 -51.162376 -3.551159 3.288834 22.776991 3.103784 1.688099 13.041457 1.612314 2.194770 16.292676 2.093950 1.687444 13.040610 1.612074 1.522778 16.159508 5.797885 0.774356 -5.702363 10.242253 2.052565 3.925213 1.059929 -0.597235 -16.218028 -12.689906 -70.589916 -65.598619 117.780934 10.066163 17.904346 -27.907169 -10.246455 0.634836 -1.103931 4.021519 -11.765287 14.759208 36.217704 -30.264963 -102.111862 9.500248 8.557046 6.271782 4.265400 -20.152731 -3.329151 -34.485731 73.599419 -38.806898 5.461453 -14.105612 11.957611 0.008954 -0.019113 0.065156 -7.510443 -17.952724 5.108274 86.457964 82.116737 85.425883 0.723627 -21.808012 -17.920680 0.010023 0.028673 0.010164
-45.681815 57.871736 11.807128 179.038222 -51.157881 -3.555029 3.294904 22.774036 3.110752 1.696703 13.041690 1.618316 2.184386 16.290073 2.091641 1.682485 13.040305 1.610702 1.523736 16.157161 5.784143 0.772374 -5.705316 10.217484 2.060794 3.925208 1.056099 -0.608537 -16.218272 -12.684309 -70.712951 -65.639704 117.892870 10.129124 17.920150 -27.930881 -10.223085 0.625198 -1.105270 4.017660 -11.752380 14.752133 36.212750 -30.287651 -102.121156 9.477964 8.543907 6.249176 4.266585 -20.157071 -3.325765 -34.499788 73.602169 -38.819664 5.459208 -14.114369 11.950277 0.010105 -0.016177 0.070489 -7.504007 -17.958084 5.114219 86.475031 82.126173 85.445848 0.718631 -21.813909 -17.916775 0.010352 0.028615 0.012231
-45.685161 57.871187 11.804866 179.053280 -51.155076 -3.551502 3.287324 22.775221 3.103325 1.691051 13.039781 1.614729 2.185882 16.289261 2.092398 1.682491 13.038373 1.611427 1.520203 16.157517 5.769391 0.771965 -5.708703 10.191629 2.059302 3.926354 1.053817 -0.596993 -16.213806 -12.681866 -70.828606 -65.681163 117.985744 10.134567 17.937722 -27.944418 -10.209173 0.619620 -1.109468 4.017691 -11.746719 14.746073 36.224598 -30.317974 -102.123377 9.473235 8.544562 6.219088 4.268263 -20.157751 -3.339328 -34.539916 73.607790 -38.863533 5.457622 -14.128756 11.956571 0.011029 -0.019683 0.059463 -7.506214 -17.963014 5.101129 86.472531 82.123976 85.437116 0.709152 -21.813636 -17.908812 0.007900 0.028538 0.011710
-45.688904 57.870371 11.802969 179.067612 -51.149890 -3.545139 3.275763 22.775038 3.090190 1.688517 13.037261 1.612640 2.184316 16.288297 2.091567 1.688157 13.038777 1.613485 1.512645 16.157481 5.754241 0.771427 -5.710407 10.196091 2.066203 3.929416 1.044119 -0.573453 -16.213449 -12.678285 -70.956905 -65.720799 118.067008 10.139962 17.958197 -27.954772 -10.210283 0.615685 -1.111512 4.034848 -11.748546 14.737812 36.246295 -30.356943 -102.129562 9.487558 8.561755 6.183692 4.267571 -20.159165 -3.357081 -34.549401 73.617807 -38.881178 5.447591 -14.147657 11.963705 0.004301 -0.018198 0.049904 -7.507668 -17.970840 5.085547 86.471466 82.126307 85.430175 0.705852 -21.812498 -17.903849 0.005614 0.027947 0.012894
-45.689506 57.869903 11.801307 179.067332 -51.146388 -3.546085 3.287094 22.779366 3.098053 1.689135 13.036902 1.613504 2.174362 16.282760 2.091044 1.687026 13.036536 1.612767 1.512424 16.158659 5.738375 0.771373 -5.713002 10.171744 2.085614 3.934374 1.026758 -0.587705 -16.216795 -12.660878 -71.059127 -65.757336 118.151637 10.145475 17.979439 -27.961708 -10.206197 0.612300 -1.112423 4.041848 -11.751406 14.732609 36.240488 -30.363517 -102.126984 9.471915 8.544712 6.160492 4.267182 -20.161915 -3.354637 -34.547041 73.621925 -38.883598 5.459929 -14.166930 11.954669 0.003578 -0.017419 0.043140 -7.504084 -17.975119 5.094771 86.478318 82.134153 85.433816 0.703126 -21.808216 -17.904045 0.005737 0.022897 0.017015
-45.690867 57.868946 11.800186 179.077225 -51.138237 -3.550234 3.280985 22.773087 3.095113 1.694735 13.039929 1.615256 2.183359 16.285491 2.091699 1.678764 13.032490 1.613852 1.506813 16.155976 5.725337 0.764745 -5.715907 10.150248 2.083162 3.931080 1.027924 -0.581466 -16.215038 -12.660786 -71.135120 -65.783444 118.209120 10.148913 17.996209 -27.964398 -10.203455 0.603442 -1.112047 4.045415 -11.751139 14.730593 36.231234 -30.371811 -102.125266 9.457217 8.534595 6.139490 4.261594 -20.169198 -3.355479 -34.549021 73.623711 -38.891891 5.457079 -14.174422 11.957519 -0.000339 -0.014410 0.042602 -7.504083 -17.986236 5.098857 86.484286 82.143763 85.437263 0.698834 -21.804156 -17.894081 0.008844 0.020864 0.012307
-45.692369 57.867507 11.799700 179.083350 -51.125257 -3.550533 3.282147 22.764291 3.095443 1.693244 13.041121 1.614625 2.183800 16.283803 2.091040 1.682521 13.031048 1.614626 1.495263 16.154635 5.711514 0.746998 -5.720667 10.090047 2.088485 3.927040 1.024561 -0.559635 -16.202692 -12.666401 -71.202584 -65.790491 118.234960 10.150061 18.002349 -27.964432 -10.210004 0.600630 -1.108962 4.049118 -11.754026 14.727689 36.247337 -30.380877 -102.140798 9.432928 8.532898 6.110151 4.256647 -20.182237 -3.355890 -34.554457 73.624568 -38.905439 5.454705 -14.182177 11.959484 0.004589 -0.015515 0.037208 -7.500473 -17.999489 5.100540 86.466795 82.153714 85.420132 0.696171 -21.805006 -17.886615 0.011495 0.022371 0.011912
-45.692883 57.866651 11.799050 179.073707 -51.115755 -3.544488 3.297835 22.767464 3.106599 1.686151 13.030474 1.609159 2.185276 16.283860 2.091756 1.684236 13.031180 1.610914 1.484903 16.151584 5.701064 0.744043 -5.721233 10.085236 2.106596 3.930725 1.019191 -0.577012 -16.208386 -12.657184 -71.285736 -65.824357 118.307483 10.146894 18.023370 -27.976564 -10.213644 0.595590 -1.102780 4.056695 -11.746355 14.727898 36.257507 -30.393142 -102.159422 9.430848 8.535687 6.101898 4.268106 -20.199907 -3.351024 -34.591833 73.629171 -38.941534 5.456434 -14.183754 11.954393 0.010725 -0.022766 0.036949 -7.492086 -18.007635 5.105673 86.464071 82.160586 85.416308 0.699016 -21.808108 -17.883254 0.010518 0.023897 0.012430
-45.694818 57.866664 11.797722 179.071926 -51.111607 -3.536135 3.296836 22.767767 3.103221 1.687323 13.028900 1.607598 2.183416 16.282438 2.090915 1.687189 13.032765 1.612013 1.471854 16.148227 5.686536 0.741783 -5.721383 10.079120 2.108701 3.932350 1.014821 -0.574999 -16.211992 -12.656715 -71.410331 -65.877764 118.410295 10.138988 18.062205 -27.988996 -10.217376 0.591370 -1.102710 4.055396 -11.739825 14.730681 36.264323 -30.400339 -102.168932 9.428265 8.530825 6.093380 4.276611 -20.204940 -3.358913 -34.615459 73.631903 -38.961051 5.447406 -14.191768 11.949648 0.015519 -0.030114 0.029828 -7.487575 -18.010467 5.096880 86.459730 82.161446 85.409084 0.705133 -21.811598 -17.880963 0.005971 0.028513 0.010941
